<?xml version="1.0" encoding="utf-8"?>
<!-- Generator: Adobe Illustrator 26.0.3, SVG Export Plug-In . SVG Version: 6.00 Build 0)  -->
<svg version="1.1" id="Layer_1" xmlns="http://www.w3.org/2000/svg" xmlns:xlink="http://www.w3.org/1999/xlink" x="0px" y="0px"
	 viewBox="0 0 171.6 110.3" style="enable-background:new 0 0 171.6 110.3;" xml:space="preserve">
<path d="M110.3,108.6c0-32.9,26.6-59.5,59.5-59.5c0.7,0,1.1,0,1.8,0V0c-0.7,0-1.1,0-1.8,0c-34,0-64.1,15.4-84,39.9
	C65.8,15.8,35.7,0,1.8,0C1.1,0,0.7,0,0,0v49c0.7,0,1.1,0,1.8,0c32.9,0,59.5,26.6,59.5,59.5c0,0.7,0,1.1,0,1.8l0,0h49l0,0
	C110.3,110,110.3,109.3,110.3,108.6z"/>
</svg>
