<svg width="56" height="37" viewBox="0 0 56 37" fill="none" xmlns="http://www.w3.org/2000/svg">
<path d="M36 36.4127C36 33.7904 36.5026 31.1938 37.4789 28.7712C38.4553 26.3485 39.8863 24.1472 41.6904 22.293C43.4945 20.4388 45.6364 18.968 47.9936 17.9645C50.3508 16.961 52.8772 16.4444 55.4286 16.4444C55.6229 16.4444 55.8171 16.4444 56 16.4444L56 0C55.8057 -8.49237e-09 55.6229 -1.64853e-08 55.4286 -2.49778e-08C50.1787 0.000201358 44.9945 1.19958 40.2508 3.51133C35.5072 5.82309 31.3227 9.18945 28 13.367C24.6773 9.18945 20.4928 5.82309 15.7492 3.51133C11.0055 1.19958 5.82132 0.000199419 0.571426 -2.42286e-06C0.37714 -2.43135e-06 0.194283 -2.43935e-06 -3.8147e-06 -2.44784e-06L-4.53351e-06 16.4444C0.182853 16.4444 0.377139 16.4444 0.571426 16.4444C5.7242 16.4444 10.666 18.5482 14.3096 22.293C17.9531 26.0378 20 31.1168 20 36.4127L20 37L36 37L36 36.4127Z" fill="white"/>
</svg>
