<svg width="181" height="29" viewBox="0 0 181 29" fill="none" xmlns="http://www.w3.org/2000/svg">
<path d="M0.89 0.679999H7.76L10.55 9.98C10.75 10.68 10.95 11.48 11.15 12.38C11.35 13.28 11.53 14.15 11.69 14.99C11.89 15.95 12.07 16.93 12.23 17.93H12.32C12.48 16.93 12.65 15.95 12.83 14.99C12.99 14.15 13.16 13.28 13.34 12.38C13.54 11.48 13.75 10.68 13.97 9.98L16.7 0.679999H23.66V23H18.95V13.01C18.95 12.31 18.97 11.5 19.01 10.58C19.05 9.66 19.09 8.78 19.13 7.94C19.19 6.98 19.25 5.99 19.31 4.97H19.25C19.07 5.89 18.88 6.8 18.68 7.7C18.52 8.46 18.33 9.27 18.11 10.13C17.91 10.97 17.71 11.72 17.51 12.38L14.33 23H10.13L6.92 12.38C6.72 11.72 6.51 10.97 6.29 10.13C6.09 9.27 5.91 8.46 5.75 7.7C5.55 6.8 5.36 5.89 5.18 4.97H5.12C5.18 5.99 5.24 6.98 5.3 7.94C5.34 8.78 5.38 9.66 5.42 10.58C5.46 11.5 5.48 12.31 5.48 13.01V23H0.89V0.679999ZM27.0437 0.679999H31.8137V4.79H27.0437V0.679999ZM27.0737 7.04H31.7837V23H27.0737V7.04ZM42.3059 28.55C40.1059 28.55 38.3359 28.11 36.9959 27.23C35.6559 26.37 34.8659 25.15 34.6259 23.57H39.2159C39.3759 24.05 39.6859 24.44 40.1459 24.74C40.6259 25.04 41.3259 25.19 42.2459 25.19C43.3659 25.19 44.1959 24.92 44.7359 24.38C45.2959 23.84 45.5759 23.08 45.5759 22.1V21.77C45.5759 20.91 45.6059 20.21 45.6659 19.67H45.5459C44.6059 21.23 43.1659 22.01 41.2259 22.01C40.3059 22.01 39.4259 21.85 38.5859 21.53C37.7459 21.19 37.0059 20.7 36.3659 20.06C35.7259 19.4 35.2159 18.6 34.8359 17.66C34.4559 16.72 34.2659 15.65 34.2659 14.45C34.2659 13.29 34.4259 12.23 34.7459 11.27C35.0859 10.29 35.5559 9.46 36.1559 8.78C36.7559 8.08 37.4659 7.54 38.2859 7.16C39.1059 6.78 40.0059 6.59 40.9859 6.59C42.0659 6.59 42.9859 6.78 43.7459 7.16C44.5059 7.54 45.1159 8.18 45.5759 9.08H45.6359V7.04H50.1359V21.59C50.1359 22.79 49.9459 23.81 49.5659 24.65C49.2059 25.51 48.7059 26.23 48.0659 26.81C47.3659 27.41 46.5259 27.85 45.5459 28.13C44.5659 28.41 43.4859 28.55 42.3059 28.55ZM42.2759 18.47C42.8759 18.47 43.3859 18.37 43.8059 18.17C44.2459 17.95 44.6059 17.65 44.8859 17.27C45.1859 16.89 45.3959 16.45 45.5159 15.95C45.6559 15.45 45.7259 14.9 45.7259 14.3C45.7259 13.12 45.4359 12.14 44.8559 11.36C44.2759 10.56 43.4059 10.16 42.2459 10.16C41.2059 10.16 40.3859 10.54 39.7859 11.3C39.1859 12.04 38.8859 13.05 38.8859 14.33C38.8859 15.59 39.1859 16.6 39.7859 17.36C40.3859 18.1 41.2159 18.47 42.2759 18.47ZM63.6744 23V20.72H63.5844C63.0044 21.66 62.3344 22.35 61.5744 22.79C60.8144 23.23 59.8844 23.45 58.7844 23.45C56.9644 23.45 55.5744 22.92 54.6144 21.86C53.6544 20.78 53.1744 19.36 53.1744 17.6V7.04H57.8844V16.7C57.8844 17.6 58.0944 18.29 58.5144 18.77C58.9544 19.25 59.5944 19.49 60.4344 19.49C61.3944 19.49 62.1444 19.17 62.6844 18.53C63.2244 17.89 63.4944 17.07 63.4944 16.07V7.04H68.1444V23H63.6744ZM78.9334 23.48C77.6334 23.48 76.4634 23.27 75.4234 22.85C74.3834 22.41 73.4934 21.81 72.7534 21.05C72.0334 20.29 71.4734 19.4 71.0734 18.38C70.6934 17.36 70.5034 16.25 70.5034 15.05C70.5034 13.85 70.7034 12.74 71.1034 11.72C71.5034 10.68 72.0634 9.78 72.7834 9.02C73.5034 8.26 74.3634 7.67 75.3634 7.25C76.3634 6.81 77.4734 6.59 78.6934 6.59C79.8334 6.59 80.8534 6.77 81.7534 7.13C82.6734 7.49 83.4834 7.99 84.1834 8.63C85.0834 9.51 85.7434 10.6 86.1634 11.9C86.5834 13.2 86.7834 14.64 86.7634 16.22H75.1234C75.2834 17.42 75.6834 18.36 76.3234 19.04C76.9634 19.72 77.8534 20.06 78.9934 20.06C79.7334 20.06 80.3334 19.93 80.7934 19.67C81.2734 19.39 81.6434 19 81.9034 18.5H86.4634C86.2634 19.2 85.9434 19.86 85.5034 20.48C85.0834 21.08 84.5534 21.61 83.9134 22.07C83.2934 22.51 82.5634 22.85 81.7234 23.09C80.8834 23.35 79.9534 23.48 78.9334 23.48ZM78.6934 9.92C77.6134 9.92 76.7934 10.24 76.2334 10.88C75.6734 11.52 75.3134 12.39 75.1534 13.49H81.9634C81.8834 12.37 81.5534 11.5 80.9734 10.88C80.3934 10.24 79.6334 9.92 78.6934 9.92ZM89.1845 0.679999H93.9245V23H89.1845V0.679999ZM104.63 0.679999H121.01V5.03H109.73V9.89H119.15V14.06H109.73V23H104.63V0.679999ZM129.969 23.48C128.669 23.48 127.499 23.27 126.459 22.85C125.419 22.41 124.529 21.81 123.789 21.05C123.069 20.29 122.509 19.4 122.109 18.38C121.729 17.36 121.539 16.25 121.539 15.05C121.539 13.85 121.739 12.74 122.139 11.72C122.539 10.68 123.099 9.78 123.819 9.02C124.539 8.26 125.399 7.67 126.399 7.25C127.399 6.81 128.509 6.59 129.729 6.59C130.869 6.59 131.889 6.77 132.789 7.13C133.709 7.49 134.519 7.99 135.219 8.63C136.119 9.51 136.779 10.6 137.199 11.9C137.619 13.2 137.819 14.64 137.799 16.22H126.159C126.319 17.42 126.719 18.36 127.359 19.04C127.999 19.72 128.889 20.06 130.029 20.06C130.769 20.06 131.369 19.93 131.829 19.67C132.309 19.39 132.679 19 132.939 18.5H137.499C137.299 19.2 136.979 19.86 136.539 20.48C136.119 21.08 135.589 21.61 134.949 22.07C134.329 22.51 133.599 22.85 132.759 23.09C131.919 23.35 130.989 23.48 129.969 23.48ZM129.729 9.92C128.649 9.92 127.829 10.24 127.269 10.88C126.709 11.52 126.349 12.39 126.189 13.49H132.999C132.919 12.37 132.589 11.5 132.009 10.88C131.429 10.24 130.669 9.92 129.729 9.92ZM144.69 9.89H144.78C145.3 8.77 145.92 7.97 146.64 7.49C147.36 7.01 148.22 6.77 149.22 6.77C149.7 6.77 150.03 6.81 150.21 6.89V11H150.09C149.75 10.94 149.42 10.91 149.1 10.91C147.82 10.89 146.79 11.28 146.01 12.08C145.25 12.86 144.87 14.03 144.87 15.59V23H140.16V7.04H144.69V9.89ZM156.994 9.89H157.084C157.604 8.77 158.224 7.97 158.944 7.49C159.664 7.01 160.524 6.77 161.524 6.77C162.004 6.77 162.334 6.81 162.514 6.89V11H162.394C162.054 10.94 161.724 10.91 161.404 10.91C160.124 10.89 159.094 11.28 158.314 12.08C157.554 12.86 157.174 14.03 157.174 15.59V23H152.464V7.04H156.994V9.89ZM172.186 23.51C170.906 23.51 169.746 23.3 168.706 22.88C167.666 22.44 166.776 21.84 166.036 21.08C165.296 20.32 164.726 19.43 164.326 18.41C163.926 17.37 163.726 16.25 163.726 15.05C163.726 13.85 163.926 12.74 164.326 11.72C164.726 10.68 165.296 9.78 166.036 9.02C166.776 8.26 167.666 7.67 168.706 7.25C169.746 6.81 170.906 6.59 172.186 6.59C173.446 6.59 174.596 6.81 175.636 7.25C176.676 7.67 177.556 8.26 178.276 9.02C179.016 9.78 179.586 10.68 179.986 11.72C180.386 12.74 180.586 13.85 180.586 15.05C180.586 16.25 180.386 17.37 179.986 18.41C179.586 19.43 179.016 20.32 178.276 21.08C177.556 21.84 176.676 22.44 175.636 22.88C174.596 23.3 173.446 23.51 172.186 23.51ZM172.156 20.09C173.336 20.09 174.236 19.63 174.856 18.71C175.496 17.77 175.816 16.55 175.816 15.05C175.816 13.53 175.496 12.3 174.856 11.36C174.236 10.42 173.336 9.95 172.156 9.95C170.956 9.95 170.046 10.42 169.426 11.36C168.806 12.3 168.496 13.53 168.496 15.05C168.496 16.55 168.806 17.77 169.426 18.71C170.046 19.63 170.956 20.09 172.156 20.09Z" fill="white"/>
</svg>
