<?xml version="1.0" standalone="no"?>
<!DOCTYPE svg PUBLIC "-//W3C//DTD SVG 20010904//EN"
 "http://www.w3.org/TR/2001/REC-SVG-20010904/DTD/svg10.dtd">
<svg version="1.0" xmlns="http://www.w3.org/2000/svg"
 width="700.000000pt" height="700.000000pt" viewBox="0 0 700.000000 700.000000"
 preserveAspectRatio="xMidYMid meet">
<metadata>
Created by potrace 1.14, written by Peter Selinger 2001-2017
</metadata>
<g transform="translate(0.000000,700.000000) scale(0.100000,-0.100000)"
fill="#000000" stroke="none">
<path d="M1037 4833 c-4 -3 -7 -595 -7 -1315 l0 -1308 276 0 276 0 -5 753 c-3
413 -10 824 -16 912 -5 88 -12 221 -15 295 l-5 135 15 -70 c9 -38 38 -171 65
-295 27 -124 65 -281 85 -350 31 -108 376 -1258 405 -1347 l11 -33 247 0 247
0 197 658 c213 712 250 848 333 1221 44 198 53 231 49 171 -26 -374 -35 -705
-35 -1347 l0 -703 275 0 275 0 0 1315 0 1315 -408 0 -409 0 -177 -603 c-97
-332 -187 -648 -200 -703 -23 -94 -100 -492 -126 -654 -14 -85 -20 -79 -40 40
-23 145 -101 517 -140 675 -22 88 -113 403 -203 700 l-163 540 -400 3 c-220 1
-403 -1 -407 -5z"/>
<path d="M4150 3525 l0 -1315 300 0 300 0 0 525 0 525 555 0 555 0 0 250 0
250 -555 0 -555 0 0 280 0 280 665 0 665 0 0 260 0 260 -965 0 -965 0 0 -1315z"/>
</g>
</svg>
